<svg xmlns="http://www.w3.org/2000/svg" version="1.1" xmlns:xlink="http://www.w3.org/1999/xlink" xmlns:svgjs="http://svgjs.dev/svgjs" width="100%" height="100%" viewBox="0 0 1000 600"><rect width="1000" height="600" x="0" y="0" fill="none"/><g><rect width="333.3333333333333" height="333.3333333333333" rx="13.333333333333334" ry="13.333333333333334" y="174.8610829896107" fill="#243342" transform="matrix(0.818926369402437,0,0,0.818926369402437,0,20.313913696716384)" x="152.63887023925778"/><path d="M256.23175428791706 266.52773281013003L275.49380940988095 266.52773281013003L291.79247143615817 312.7508545281459L347.22535404959274 312.7508545281459L363.3496988349471 266.52773281013003L382.37933096901406 266.52773281013003L327.99235180111594 416.52771862415665L310.4153633414053 416.52771862415665L256.23175428791706 266.52773281013003ZM297.2253587782505 329.48530965672995L312.7105403468882 374.6915808026966Q313.146333449195 376.3475945914627 314.4827656296028 380.7345784880186Q315.84825068349767 385.1506152580616 317.21373573739254 389.8571807629758Q318.5792207912874 394.56374626789005 319.4217541224141 397.06229338778286L319.4217541224141 397.06229338778286Q320.8743977967703 390.58350260015396 322.6466230794849 384.3952405473963Q324.4188483621996 378.2360313681258 325.6971747956331 374.6915808026966L325.6971747956331 374.6915808026966L341.1533034907836 329.48530965672995L297.2253587782505 329.48530965672995Z " fill="#ecb613" transform="matrix(0.818926369402437,0,0,0.818926369402437,0,20.313913696716384)"/><path d="M686.0259577367125 414.59223989932076L668.203379284704 414.59223989932076L653.1227359791586 371.82342795792516L601.8324197100304 371.82342795792516L586.913066707218 414.59223989932076L569.3055419921872 414.59223989932076L619.6281164449166 275.8288161146042L635.8915553038383 275.8288161146042L686.0259577367125 414.59223989932076ZM648.068973160188 356.3395588955469L633.7678996511858 314.5384887705499Q633.3646738943529 312.97934917746323 632.1012331896103 308.9202098920133Q630.8646742019897 304.86107060656343 629.6012334972471 300.5062324327696Q628.3377927925045 296.15139425897564 627.558222995961 293.8126848693456L627.558222995961 293.8126848693456Q626.2141371398519 299.8073077875928 624.5743523953987 305.5331135346181Q622.9076859338232 311.2320375645212 621.7517720975692 314.5384887705499L621.7517720975692 314.5384887705499L607.423816871445 356.3395588955469L648.068973160188 356.3395588955469ZM718.3377817175782 267.49548380672695L718.3377817175782 414.59223989932076L701.5098267990908 414.59223989932076L701.5098267990908 267.49548380672695L718.3377817175782 267.49548380672695ZM794.6012131932158 310.8556935248106L794.6012131932158 324.0008531975589L770.2194957633943 324.0008531975589L770.2194957633943 414.59223989932076L753.1764871079293 414.59223989932076L753.1764871079293 324.0008531975589L736.3485321894419 324.0008531975589L736.3485321894419 316.07074664651446L753.1764871079293 310.26429574812255L753.1764871079293 304.2696728298754Q753.1764871079293 290.9094594201497 756.9399275050354 282.60300882939464Q760.7302496192632 274.26967652151745 767.8807863737644 270.3987092559229Q775.0582048453876 266.5277419903283 785.1119670490847 266.5277419903283L785.1119670490847 266.5277419903283Q791.1065899673318 266.5277419903283 796.0528259178137 267.6030106752157Q800.9721801511736 268.6513976429809 804.6549753969128 270.0223652162123L804.6549753969128 270.0223652162123L800.2194920717524 283.35569690881584Q797.101212885579 282.3879550924172 793.3377724884732 281.42021327601856Q789.5743320913672 280.4524714596199 785.4883110887953 280.4524714596199L785.4883110887953 280.4524714596199Q777.7463765576061 280.4524714596199 773.9829361605003 286.17827720664525Q770.2194957633943 291.87720123654833 770.2194957633943 304.0815008100201L770.2194957633943 304.0815008100201L770.2194957633943 310.8556935248106L794.6012131932158 310.8556935248106ZM858.284001055671 308.9202098920133L858.284001055671 308.9202098920133Q860.9721727678894 308.9202098920133 864.0904519540628 309.2159087803574Q867.1818494231142 309.4847259515792 869.4936770956218 310.07612372826725L869.4936770956218 310.07612372826725L867.5581934628248 325.7481648105009Q865.2463657903169 325.183648750935 862.4237854924874 324.78042299410225Q859.6280869117803 324.40407895439165 857.1012055022949 324.40407895439165L857.1012055022949 324.40407895439165Q851.5098083408806 324.40407895439165 846.4560455219097 326.90407864675484Q841.4291644200613 329.43096005624017 837.4775520031002 333.9739702498893Q833.4990578690168 338.51698044353856 831.187230196509 344.91482911861846Q828.848520806879 351.31267779369836 828.848520806879 359.2427843447428L828.848520806879 359.2427843447428L828.848520806879 414.59223989932076L812.0205658883914 414.59223989932076L812.0205658883914 310.8556935248106L825.7571233378277 310.8556935248106L827.692606970625 329.80730409595077L828.4721767671684 329.80730409595077Q831.5635742362196 324.0008531975589 835.9184124100135 319.26967098405436Q840.2732505838072 314.5384887705499 845.8915294623438 311.7159084727205Q851.5098083408806 308.9202098920133 858.284001055671 308.9202098920133ZM921.9399072010041 308.9202098920133L921.9399072010041 308.9202098920133Q934.5205508141863 308.9202098920133 943.6334529186068 314.7266607904052Q952.7194733059051 320.5331116887971 957.6657092563872 331.0707448006934Q962.5850634897471 341.6352596297119 962.5850634897471 355.74816111885883L962.5850634897471 355.74816111885883L962.5850634897471 366.0169770595333L896.0259318952182 366.0169770595333Q896.4022759349288 383.6245017745642 904.332382485973 392.81804903035123Q912.2624890370174 402.0115962861384 926.5904442631419 402.0115962861384L926.5904442631419 402.0115962861384Q935.8915183874177 402.0115962861384 943.1495820104075 400.1836395218299Q950.4076456333975 398.3288010403991 958.1495801645866 394.8610595316373L958.1495801645866 394.8610595316373L958.1495801645866 409.75353081732754Q950.5958176532525 413.2481540432115 943.3377540302628 414.88793878766484Q936.079690407273 416.52772353211805 925.8108744665986 416.52772353211805L925.8108744665986 416.52772353211805Q911.886144997307 416.52772353211805 901.2409850169219 410.5331006138709Q890.5958250365367 404.5384776956237 884.6012021182897 392.62987701049593Q878.6065792000426 380.72127632536825 878.6065792000426 363.490095650048L878.6065792000426 363.490095650048Q878.6065792000426 346.47396871170514 884.0098043416016 334.2696691382334Q889.4399112002828 322.0653695647616 899.1979745156358 315.50623058694856Q908.982919548111 308.9202098920133 921.9399072010041 308.9202098920133ZM921.9399072010041 322.84493936130497L921.9399072010041 322.84493936130497Q910.730231161053 322.84493936130497 904.1442104661179 330.6944007609828Q897.5581897711826 338.51698044353856 896.4022759349288 352.4685916299523L896.4022759349288 352.4685916299523L945.1657107945713 352.4685916299523Q945.1657107945713 343.5707432625092 942.6657111022081 336.984722567574Q940.1388296927229 330.3987018726388 935.0044217223857 326.6352614755329Q929.8968954691705 322.84493936130497 921.9399072010041 322.84493936130497ZM1021.4291422702089 416.52772353211805L1021.4291422702089 416.52772353211805Q1003.4452735154674 416.52772353211805 992.5044146467384 403.0868649710258Q981.5635557780093 389.61912469281134 981.5635557780093 362.9255795904821L981.5635557780093 362.9255795904821Q981.5635557780093 336.20515277103067 992.5850597981049 322.5492404729609Q1003.6334455353227 308.9202098920133 1021.6173142900642 308.9202098920133L1021.6173142900642 308.9202098920133Q1029.1710768013982 308.9202098920133 1034.7893556799345 310.9363386761771Q1040.4076345584713 312.97934917746323 1044.5743007124097 316.4739724033472Q1048.7140851492263 319.94171391210904 1051.6173105984221 324.21590693453635L1051.6173105984221 324.21590693453635L1052.8001061517984 324.21590693453635Q1052.585052414821 321.689025525051 1052.1011815066213 316.74278957456903Q1051.6173105984221 311.8234353412093 1051.6173105984221 308.9202098920133L1051.6173105984221 308.9202098920133L1051.6173105984221 267.49548380672695L1068.472147234032 267.49548380672695L1068.472147234032 414.59223989932076L1054.9237618044508 414.59223989932076L1052.3968803949656 400.66751043002915L1051.6173105984221 400.66751043002915Q1048.7140851492263 405.10299375518963 1044.5743007124097 408.6782621324401Q1040.4076345584713 412.28041222681287 1034.681828811446 414.40406787946546Q1028.9829047815429 416.52772353211805 1021.4291422702089 416.52772353211805ZM1024.5205397392601 402.387940325849L1024.5205397392601 402.387940325849Q1039.6280647619278 402.387940325849 1045.7302145486638 393.4094468070394Q1051.8323643353997 384.4040715711075 1051.8323643353997 366.2051490793886L1051.8323643353997 366.2051490793886L1051.8323643353997 363.1137516103374Q1051.8323643353997 343.7589152823645 1046.0259134370076 333.4094541903235Q1040.219462538616 323.03311138116027 1024.3323677194048 323.03311138116027L1024.3323677194048 323.03311138116027Q1011.5635520863672 323.03311138116027 1005.2732302797762 333.9739702498893Q998.9829084731849 344.91482911861846 998.9829084731849 363.3019236301927L998.9829084731849 363.3019236301927Q998.9829084731849 381.8771901616222 1005.2732302797762 392.14600610229667Q1011.5635520863672 402.387940325849 1024.5205397392601 402.387940325849Z " fill="#ecb613" transform="matrix(0.818926369402437,0,0,0.818926369402437,0,20.313913696716384)"/></g></svg>