<svg xmlns="http://www.w3.org/2000/svg" version="1.1" xmlns:xlink="http://www.w3.org/1999/xlink" xmlns:svgjs="http://svgjs.com/svgjs" width="512px" height="512px"><svg xmlns="http://www.w3.org/2000/svg" version="1.1" width="512px" height="512px" style="shape-rendering:geometricPrecision; text-rendering:geometricPrecision; image-rendering:optimizeQuality; fill-rule:evenodd; clip-rule:evenodd" xmlns:xlink="http://www.w3.org/1999/xlink">
<g><path style="opacity:0.941" fill="#000000" d="M 4.5,73.5 C 41.5015,73.3333 78.5015,73.5 115.5,74C 116.833,76.6667 116.833,79.3333 115.5,82C 108.622,82.7567 101.956,84.4234 95.5,87C 90.7871,90.0518 88.1204,94.3852 87.5,100C 88.5194,107.057 90.3527,113.891 93,120.5C 99.2419,135.979 105.742,151.312 112.5,166.5C 149.067,167.829 185.567,167.829 222,166.5C 229.064,151.298 235.731,135.964 242,120.5C 244.529,114.349 246.362,108.016 247.5,101.5C 246.551,92.3817 241.551,86.8817 232.5,85C 227.338,84.0935 222.171,83.2601 217,82.5C 214.393,80.2958 213.893,77.6291 215.5,74.5C 245.4,73.1719 275.233,73.1719 305,74.5C 305.667,76.8333 305.667,79.1667 305,81.5C 297.791,83.7925 290.624,86.2925 283.5,89C 277.139,96.2205 271.639,104.054 267,112.5C 230.829,196.35 194.663,280.184 158.5,364C 155.331,364.978 152.497,364.478 150,362.5C 115.198,279.097 80.1979,195.763 45,112.5C 40.7076,103.538 34.8742,95.7046 27.5,89C 20.24,85.2693 12.5734,82.9359 4.5,82C 3.21381,79.1684 3.21381,76.3351 4.5,73.5 Z M 120.5,184.5 C 151.333,185.83 182.167,185.83 213,184.5C 213.5,185 214,185.5 214.5,186C 198.629,222.241 182.629,258.407 166.5,294.5C 165.201,293.91 164.368,292.91 164,291.5C 149.552,256.153 134.719,220.987 119.5,186C 120.056,185.617 120.389,185.117 120.5,184.5 Z"></path></g>
<g><path style="opacity:0.969" fill="#000000" d="M 423.5,178.5 C 460.728,180.239 486.562,198.239 501,232.5C 513.044,267.487 508.711,300.153 488,330.5C 458.39,362.688 423.89,369.188 384.5,350C 378.096,346.265 372.263,341.765 367,336.5C 366.667,365.833 366.333,395.167 366,424.5C 363.05,434.896 356.217,439.063 345.5,437C 339.843,435.217 336.343,431.384 335,425.5C 334.333,347.833 334.333,270.167 335,192.5C 339.112,181.92 346.612,178.42 357.5,182C 365.089,187.067 368.256,194.234 367,203.5C 382.819,188.17 401.652,179.837 423.5,178.5 Z M 408.5,209.5 C 430.551,205.959 449.051,212.292 464,228.5C 473.766,244.832 477.432,262.499 475,281.5C 470.51,313.161 452.344,329.494 420.5,330.5C 399.157,330.244 381.324,322.244 367,306.5C 366.333,282.167 366.333,257.833 367,233.5C 378.462,221.192 392.295,213.192 408.5,209.5 Z"></path></g>
</svg><style>@media (prefers-color-scheme: light) { :root { filter: none; } }
@media (prefers-color-scheme: dark) { :root { filter: invert(100%); } }
</style></svg>